<svg height='100px' width='100px'  fill="#87ceeb" xmlns:dc="http://purl.org/dc/elements/1.1/" xmlns:cc="http://creativecommons.org/ns#" xmlns:rdf="http://www.w3.org/1999/02/22-rdf-syntax-ns#" xmlns:svg="http://www.w3.org/2000/svg" xmlns="http://www.w3.org/2000/svg" xmlns:sodipodi="http://sodipodi.sourceforge.net/DTD/sodipodi-0.dtd" xmlns:inkscape="http://www.inkscape.org/namespaces/inkscape" version="1.1" x="0px" y="0px" viewBox="0 0 100 100"><g transform="translate(0,-952.36218)"><g transform="translate(10.010248,958.34869)"><path d="M 37.73622,0.07086614 C 35.007874,0.46062992 32.704724,1.6653543 31.393701,4.003937 27,3.507874 22.96063,4.9606299 20.692913,8.3622046 18.566929,11.480315 17.964567,15.874016 18.956693,21.11811 c -1.913386,1.098425 -2.019685,3.11811 -1.984252,4.996063 0.318897,2.480315 2.338583,6.519685 4.641732,6.767716 0.956693,3.153544 2.267717,6.377953 3.897638,9.318898 1.169291,2.055118 2.515748,4.003937 4.003937,5.669291 -0.03543,1.84252 -0.602362,3.330709 -1.877953,4.251969 C 20.65748,55.984251 12.720472,58.677165 6.8740157,62.43307 4.6062992,63.956692 2.1259842,67.181102 2.019685,71.751968 1.3818898,76.3937 0.67322834,81.070865 0,85.748031 c -0.14173228,1.098425 0.8503937,2.267716 1.984252,2.267716 l 76.03937,0 c 1.133858,0 2.125984,-1.169291 1.948818,-2.267716 -0.637795,-4.641733 -1.346456,-9.354331 -1.984251,-13.996063 -0.1063,-4.5 -2.161418,-8.043307 -5.06693,-9.496063 -7.192913,-3.614173 -13.960629,-7.511811 -20.444881,-10.133858 -1.559055,-1.311024 -1.877953,-3.614174 -2.019685,-5.208662 1.204724,-1.417323 2.267716,-2.976378 3.224409,-4.641732 1.736221,-2.976378 3.082677,-6.200787 4.003937,-9.425197 2.338583,-1.062992 4.287402,-4.535433 4.322835,-6.732283 0.07087,-2.232283 -0.318898,-3.685039 -1.913386,-4.96063 C 60.944882,17.255905 60.307086,12.933071 58.358267,9.1771653 55.771653,4.1811023 50.598425,0.24803149 43.547244,0.17716535 41.562992,0.07086614 39.543307,-0.07086614 37.73622,0.07086614 z M 34.724409,15.448819 c 5.952756,3.57874 11.267717,4.570866 14.704725,5.492126 2.870078,0.637795 4.535433,2.055118 4.570866,4.3937 0,0.637796 0.318897,1.275591 0.850393,1.629922 -0.566929,4.181102 -2.19685,9.177165 -4.606299,13.287401 -2.976378,5.173228 -7.015748,8.681102 -10.842519,8.681102 -3.720473,0 -7.476378,-3.507874 -10.38189,-8.716535 -2.30315,-4.110236 -3.968504,-9.070866 -4.818898,-13.287401 0.496063,-0.354331 0.814961,-0.992126 0.779528,-1.594489 0.389764,-2.444881 0.531496,-4.570866 1.452756,-6.590551 2.586614,-1.807086 5.527559,-2.374015 8.291338,-3.295275 z m 12.11811,34.830708 c 0.248032,1.700787 1.133859,3.047244 2.161418,4.216535 -3.826772,5.562992 -14.031496,5.562992 -17.893701,0 1.098425,-1.062992 1.559055,-2.19685 1.984252,-3.507874 1.877953,1.204725 4.003937,1.913386 6.307087,1.913386 2.763779,0 5.244094,-0.992126 7.440944,-2.622047 z m 6.023622,6.519685 C 54,56.976377 54.46063,57.543306 55.133858,57.685039 l 3.295276,9.81496 -5.917323,1.488189 c -1.346457,0.354331 -1.913386,2.338583 -0.92126,3.330709 l 2.622047,2.622047 -8.53937,9.070866 c -1.062992,0 -1.948819,0 -3.047244,0 5.314961,-8.503937 8.610236,-18.46063 10.240157,-27.212598 z m -26.114173,0.248031 c 1.594489,8.574804 4.14567,18.389764 10.169292,26.964567 -1.098426,0 -1.984252,0 -3.082678,0 l -8.503936,-9.070866 2.622047,-2.622047 c 0.992126,-0.992126 0.425197,-3.011811 -0.92126,-3.330709 l -5.811024,-1.488189 3.543307,-9.602362 c 0.708662,-0.248031 1.204725,-0.46063 1.984252,-0.850394 z m 33.377953,2.976378 c 3.720472,1.736221 7.192913,3.933071 10.984252,5.846457 1.027559,0.496063 2.905512,2.870079 2.905512,6.165354 0.531496,3.968504 1.133858,8.007874 1.700787,11.976378 -6.732283,0 -15.944882,0 -24.519685,0 l 7.228347,-7.724409 c 0.708661,-0.744095 0.708661,-2.055118 0,-2.76378 l -1.523623,-1.523622 4.570867,-1.133858 c 1.062992,-0.248032 1.771653,-1.523622 1.452755,-2.586614 z m -28.665354,0.141733 c 4.818897,3.259842 11.551181,3.366141 16.547244,0.389763 -1.559055,6.909449 -3.897638,14.137796 -8.220473,20.515748 -4.429133,-6.484252 -6.767716,-13.889763 -8.326771,-20.905511 z m -11.834646,0.141732 -2.940945,7.937008 c -0.389763,1.027559 0.283465,2.338582 1.38189,2.622047 l 4.570866,1.133858 -1.488189,1.523622 c -0.744094,0.708662 -0.779527,2.019685 -0.07087,2.76378 l 7.26378,7.724409 -24.0944885,0 c 0.5669291,-3.968504 1.2047244,-8.007874 1.7362204,-11.976378 0,-3.224409 1.8779528,-5.456693 3.0826772,-6.307086 3.6496059,-2.090551 7.0866139,-3.791339 10.5590549,-5.42126 z" style="" fill="#87ceeb" fill-opacity="1" fill-rule="nonzero" stroke="none"></path></g></g></svg>