<svg height='100px' width='100px'  fill="#87ceeb" xmlns:x="http://ns.adobe.com/Extensibility/1.0/" xmlns:i="http://ns.adobe.com/AdobeIllustrator/10.0/" xmlns:graph="http://ns.adobe.com/Graphs/1.0/" xmlns="http://www.w3.org/2000/svg" xmlns:xlink="http://www.w3.org/1999/xlink" version="1.1" x="0px" y="0px" viewBox="0 0 100 100" style="enable-background:new 0 0 100 100;" xml:space="preserve"><g><g i:extraneous="self"><g><path d="M5273.1,2400.1v-2c0-2.8-5-4-9.7-4s-9.7,1.3-9.7,4v2c0,1.8,0.7,3.6,2,4.9l5,4.9c0.3,0.3,0.4,0.6,0.4,1v6.4     c0,0.4,0.2,0.7,0.6,0.8l2.9,0.9c0.5,0.1,1-0.2,1-0.8v-7.2c0-0.4,0.2-0.7,0.4-1l5.1-5C5272.4,2403.7,5273.1,2401.9,5273.1,2400.1z      M5263.4,2400c-4.8,0-7.4-1.3-7.5-1.8v0c0.1-0.5,2.7-1.8,7.5-1.8c4.8,0,7.3,1.3,7.5,1.8C5270.7,2398.7,5268.2,2400,5263.4,2400z"></path><path d="M5268.4,2410.3c-0.6,0-1,0.4-1,1c0,0.6,0.4,1,1,1h4.3c0.6,0,1-0.4,1-1c0-0.6-0.4-1-1-1H5268.4z"></path><path d="M5272.7,2413.7h-4.3c-0.6,0-1,0.4-1,1c0,0.6,0.4,1,1,1h4.3c0.6,0,1-0.4,1-1C5273.7,2414.1,5273.3,2413.7,5272.7,2413.7z"></path><path d="M5272.7,2417h-4.3c-0.6,0-1,0.4-1,1c0,0.6,0.4,1,1,1h4.3c0.6,0,1-0.4,1-1C5273.7,2417.5,5273.3,2417,5272.7,2417z"></path></g><g><path d="M72.4,75.1c-0.7-6.2-4.7-11.4-10.2-13.8c1.9-2.5,3-5.7,3-9.1C65.3,43.8,58.4,37,50,37c-8.4,0-15.3,6.8-15.3,15.3     c0,3.4,1.1,6.6,3,9.1c-5.4,2.4-9.4,7.5-10.2,13.8l-1.5,12.2c-0.3,2.8,1.5,5.4,4.2,6c6.3,1.3,12.9,2,19.6,2c6.7,0,13.3-0.7,19.6-2     c2.7-0.6,4.6-3.2,4.2-6L72.4,75.1z M50,41.6c5.8,0,10.6,4.7,10.6,10.6c0,5.8-4.7,10.6-10.6,10.6s-10.6-4.7-10.6-10.6     C39.4,46.4,44.2,41.6,50,41.6z M68.7,88.7c-12,2.6-25.4,2.6-37.3,0c-0.4-0.1-0.6-0.4-0.5-0.8l1.5-12.2c0.6-5.3,4.5-9.4,9.4-10.7     c2.4,1.6,5.3,2.5,8.4,2.5c3.1,0,6-0.9,8.4-2.5c4.9,1.3,8.8,5.4,9.4,10.7l1.5,12.2C69.3,88.2,69,88.6,68.7,88.7z"></path><path d="M47.7,20.9v8.3c0,1.3,1,2.3,2.3,2.3s2.3-1,2.3-2.3v-8.3c3.4-1,5.9-4.2,5.9-7.9c0-4.6-3.7-8.3-8.3-8.3s-8.3,3.7-8.3,8.3     C41.7,16.7,44.2,19.9,47.7,20.9z M50,9.4c2,0,3.6,1.6,3.6,3.6S52,16.6,50,16.6c-2,0-3.6-1.6-3.6-3.6S48,9.4,50,9.4z"></path><path d="M22.3,32.8c1.4,0,2.8-0.4,3.9-1l5.8,5.8c0.5,0.5,1.1,0.7,1.7,0.7c0.6,0,1.2-0.2,1.7-0.7c0.9-0.9,0.9-2.4,0-3.3l-5.8-5.8     c0.6-1.2,1-2.5,1-3.9c0-4.6-3.7-8.3-8.3-8.3S14,19.9,14,24.5S17.7,32.8,22.3,32.8z M22.3,20.9c2,0,3.6,1.6,3.6,3.6     s-1.6,3.6-3.6,3.6s-3.6-1.6-3.6-3.6S20.3,20.9,22.3,20.9z"></path><path d="M89.2,43.9c-3.7,0-6.9,2.5-7.9,5.9h-8.3c-1.3,0-2.3,1-2.3,2.3s1,2.3,2.3,2.3h8.3c1,3.4,4.2,5.9,7.9,5.9     c4.6,0,8.3-3.7,8.3-8.3S93.8,43.9,89.2,43.9z M89.2,55.8c-2,0-3.6-1.6-3.6-3.6c0-2,1.6-3.6,3.6-3.6c2,0,3.6,1.6,3.6,3.6     C92.8,54.2,91.2,55.8,89.2,55.8z"></path><path d="M26.9,54.6c1.3,0,2.3-1,2.3-2.3s-1-2.3-2.3-2.3h-8.3c-1-3.4-4.2-5.9-7.9-5.9c-4.6,0-8.3,3.7-8.3,8.3s3.7,8.3,8.3,8.3     c3.7,0,6.9-2.5,7.9-5.9H26.9z M10.8,55.8c-2,0-3.6-1.6-3.6-3.6c0-2,1.6-3.6,3.6-3.6s3.6,1.6,3.6,3.6     C14.4,54.2,12.8,55.8,10.8,55.8z"></path><path d="M66.3,38.3c0.6,0,1.2-0.2,1.7-0.7l5.8-5.8c1.2,0.6,2.5,1,3.9,1c4.6,0,8.3-3.7,8.3-8.3s-3.7-8.3-8.3-8.3s-8.3,3.7-8.3,8.3     c0,1.4,0.4,2.8,1,3.9l-5.8,5.8c-0.9,0.9-0.9,2.4,0,3.3C65.1,38,65.7,38.3,66.3,38.3z M77.7,20.9c2,0,3.6,1.6,3.6,3.6     s-1.6,3.6-3.6,3.6s-3.6-1.6-3.6-3.6S75.8,20.9,77.7,20.9z"></path></g></g></g></svg>